<svg id="Layer_1" data-name="Layer 1" xmlns="http://www.w3.org/2000/svg" width="300" height="300" viewBox="0 0 300 300">
  <g>
    <path d="M150.437,300C68.1,300.5.556,233.761,0,151.366-.554,68.153,65.946.492,148.77,0,231.987-.489,299.681,66.156,300,148.89,300.32,232.489,234,299.491,150.437,300Z" style="fill: #1b1464"/>
    <path d="M149.784,279.134A129.185,129.185,0,0,0,279.136,148.8c-.371-70.9-58.728-128.208-130.2-127.864-70.788.341-128.273,58.5-127.988,129.489C21.231,221.474,79.187,279.373,149.784,279.134Z" style="fill: #fff"/>
    <path d="M57.967,207.487v-20.4c2.082-.107,3.987-.285,5.892-.291,13.919-.046,27.847.237,41.756-.151,18.617-.519,31.794-13.474,33.29-32.085,1.726-21.474-8.84-37.812-27.872-40.665-10.047-1.506-20.506-.266-31.621-.266v61.6c-6.91,0-13.012.217-19.068-.22-.969-.07-2.455-3.06-2.471-4.713-.183-18.255-.123-36.512-.127-54.769,0-7.384,0-14.768,0-21.808.739-.554,1.022-.953,1.3-.952,17.52.038,35.152-1.127,52.535.452,29.681,2.7,48.5,25.085,48.861,55.743.41,34.99-22.065,58.123-57,58.5C88.481,207.621,73.516,207.487,57.967,207.487Z" style="fill: #f15a24"/>
    <path d="M224.527,147.73c14.027,8.172,19.258,18.322,17.308,32.334-1.834,13.178-10.211,22.057-24.649,25.461a70.617,70.617,0,0,1-15.022,1.848c-16.264.252-32.534.144-48.8.152a27.588,27.588,0,0,1-2.913-.28c4.819-6.181,9.409-12.31,14.33-18.162.909-1.081,3.144-1.432,4.777-1.456,9.4-.136,18.816.282,28.189-.213a48.389,48.389,0,0,0,15.747-3.163c8.6-3.561,9.889-13.622,3.075-20.033-5-4.7-11.162-6.512-17.893-6.557-7.734-.051-15.468-.012-23.716-.012V138.831c7.084,0,14.433.123,21.774-.051a55.832,55.832,0,0,0,11.273-1.184c4.652-1.083,8.243-3.871,9.114-8.938.909-5.291-.811-10.109-5.348-12.68a29.943,29.943,0,0,0-12.676-3.787c-9.911-.545-19.879,0-29.81-.329a9.6,9.6,0,0,1-5.986-3.172c-4.517-5.034-8.628-10.432-13.128-15.974,1.782-.082,3.5-.227,5.222-.229,14.822-.01,29.653-.287,44.462.151A66.121,66.121,0,0,1,218.434,95.7c14.685,4.855,22.732,19.147,20.087,34.305C237.118,138.044,232.342,143.657,224.527,147.73Z" style="fill: #662d91"/>
  </g>
</svg>
