<?xml version="1.0" standalone="no"?>
<!DOCTYPE svg PUBLIC "-//W3C//DTD SVG 20010904//EN"
 "http://www.w3.org/TR/2001/REC-SVG-20010904/DTD/svg10.dtd">
<svg version="1.0" xmlns="http://www.w3.org/2000/svg"
 width="700.000000pt" height="700.000000pt" viewBox="0 0 700.000000 700.000000"
 preserveAspectRatio="xMidYMid meet">
<metadata>
Created by potrace 1.14, written by Peter Selinger 2001-2017
</metadata>
<g transform="translate(0.000000,700.000000) scale(0.100000,-0.100000)"
fill="#000000" stroke="none">
<path d="M3205 6989 c-1084 -95 -2046 -671 -2638 -1580 -299 -459 -481 -972
-549 -1544 -19 -166 -16 -607 5 -780 129 -1024 673 -1914 1517 -2484 805 -544
1769 -726 2725 -515 648 143 1239 468 1710 939 570 570 912 1289 1007 2120 16
145 16 589 0 730 -53 442 -164 819 -353 1198 -478 954 -1377 1640 -2434 1857
-275 57 -717 83 -990 59z m720 -509 c553 -84 1044 -298 1475 -644 106 -85 318
-294 412 -406 356 -423 584 -928 669 -1480 27 -174 37 -536 20 -717 -137
-1459 -1275 -2597 -2734 -2734 -183 -17 -544 -7 -721 21 -175 27 -403 84 -571
145 -274 98 -617 291 -855 481 -119 95 -393 371 -480 484 -340 442 -552 939
-625 1470 -22 164 -30 487 -16 649 35 398 127 725 306 1086 157 318 314 536
574 796 175 175 270 253 451 374 416 278 877 443 1375 494 155 16 560 6 720
-19z"/>
<path d="M1535 4833 c-77 -1 -150 -5 -162 -8 l-23 -5 0 -903 0 -903 23 -44
c22 -45 22 -45 87 -51 36 -4 138 -7 228 -8 l162 -1 0 719 0 719 167 7 c266 12
552 1 648 -24 286 -76 472 -268 552 -568 22 -85 26 -119 26 -258 1 -175 -11
-252 -59 -371 -44 -110 -93 -184 -179 -270 -70 -70 -97 -89 -186 -132 -182
-88 -152 -85 -844 -92 -335 -3 -611 -7 -612 -8 -2 -1 -3 -108 -3 -237 l0 -235
544 0 c309 0 589 5 647 11 638 64 1047 431 1166 1044 24 127 24 443 -1 574
-110 585 -514 965 -1096 1031 -103 12 -799 20 -1085 13z"/>
<path d="M3510 4835 c0 -8 190 -243 272 -336 94 -108 71 -103 523 -110 352 -6
397 -8 466 -27 159 -43 262 -121 289 -217 18 -66 8 -172 -21 -226 -13 -24 -43
-58 -67 -76 -87 -66 -209 -83 -604 -83 l-288 0 0 -220 0 -220 323 0 c290 0
332 -2 401 -20 211 -54 349 -193 349 -354 0 -109 -58 -192 -169 -242 -140 -65
-309 -84 -759 -84 -227 -1 -328 -4 -347 -13 -32 -14 -358 -416 -358 -441 0 -4
307 -5 683 -3 755 5 771 6 970 75 119 41 188 84 279 173 62 61 86 93 118 160
61 130 74 192 74 354 0 129 -2 146 -28 215 -55 145 -157 267 -307 367 l-68 45
72 47 c124 81 206 193 243 328 23 89 21 262 -5 357 -70 254 -255 432 -521 501
-183 47 -184 47 -867 52 -359 2 -653 1 -653 -2z"/>
</g>
</svg>
